<svg xmlns="http://www.w3.org/2000/svg" width="24" height="24" viewBox="0 0 6.35 6.35"><g><path d="M26.754 55.805h-3.157q-1.608-1.884-2.386-3.877-.77-1.993-.77-4.363t.77-4.363q.778-1.993 2.386-3.877h3.157v.243q-.678.611-1.298 1.39-.611.77-1.139 1.809-.502.996-.82 2.21-.31 1.215-.31 2.588 0 1.432.301 2.596.31 1.164.83 2.202.502.988 1.13 1.792.636.813 1.306 1.407zM35.447 48.732h-6.39V46.32h6.39zM44.08 47.565q0 2.37-.778 4.363-.77 1.993-2.379 3.877h-3.157v-.243q.67-.594 1.307-1.398.636-.804 1.13-1.8.52-1.04.82-2.203.31-1.164.31-2.596 0-1.373-.318-2.588-.31-1.214-.812-2.21-.527-1.039-1.147-1.81-.611-.778-1.29-1.39v-.242h3.157q1.608 1.884 2.379 3.877.778 1.993.778 4.363z" transform="translate(-5.49 -9.602) scale(.26861)"/></g></svg>